<svg xmlns="http://www.w3.org/2000/svg" viewBox="0 13.479999542236328 246.8300018310547 35.97999954223633" data-asc="0.9794921875" width="246.8300018310547" height="35.97999954223633"><defs/><g fill="#4169e1"><g transform="translate(0, 0)"><path d="M20.19 40.87Q20.19 42.65 19.47 44.21Q18.75 45.78 17.54 46.95Q16.33 48.12 14.73 48.79Q13.13 49.46 11.35 49.46L8.84 49.46Q7.06 49.46 5.46 48.79Q3.86 48.12 2.65 46.95Q1.44 45.78 0.72 44.21Q0 42.65 0 40.87L0 39.48L3.15 38.96L3.15 40.87Q3.15 42.04 3.63 43.05Q4.10 44.07 4.91 44.84Q5.71 45.61 6.77 46.04Q7.84 46.48 9.01 46.48L11.21 46.48Q12.38 46.48 13.43 46.04Q14.48 45.61 15.28 44.84Q16.09 44.07 16.56 43.05Q17.04 42.04 17.04 40.87L17.04 39.82Q17.04 38.01 16.33 36.82Q15.63 35.62 14.45 34.78Q13.28 33.94 11.80 33.35Q10.33 32.76 8.76 32.18Q7.20 31.59 5.73 30.88Q4.25 30.18 3.08 29.11Q1.90 28.05 1.20 26.51Q0.49 24.98 0.49 22.73L0.49 22.07Q0.49 20.29 1.16 18.73Q1.83 17.16 3.00 15.99Q4.17 14.82 5.75 14.15Q7.32 13.48 9.11 13.48L11.35 13.48Q13.13 13.48 14.70 14.15Q16.26 14.82 17.43 15.99Q18.60 17.16 19.27 18.73Q19.95 20.29 19.95 22.07L19.95 22.97L16.80 23.49L16.80 22.07Q16.80 20.90 16.36 19.89Q15.92 18.87 15.16 18.12Q14.40 17.36 13.39 16.92Q12.38 16.48 11.21 16.48L9.25 16.48Q8.08 16.48 7.07 16.92Q6.05 17.36 5.29 18.12Q4.52 18.87 4.08 19.89Q3.64 20.90 3.64 22.07L3.64 22.73Q3.64 24.41 4.35 25.56Q5.05 26.71 6.23 27.53Q7.40 28.34 8.87 28.94Q10.35 29.54 11.91 30.16Q13.48 30.79 14.95 31.53Q16.43 32.28 17.60 33.36Q18.77 34.45 19.48 36.01Q20.19 37.57 20.19 39.82L20.19 40.87ZM35.45 16.97L35.45 48.97L32.30 48.97L32.30 16.97L23.95 16.97L23.95 13.96L43.80 13.96L43.80 16.97L35.45 16.97ZM67.99 40.87Q67.99 42.65 67.32 44.21Q66.65 45.78 65.48 46.95Q64.31 48.12 62.74 48.79Q61.18 49.46 59.40 49.46L56.91 49.46Q55.13 49.46 53.55 48.79Q51.98 48.12 50.81 46.95Q49.63 45.78 48.96 44.21Q48.29 42.65 48.29 40.87L48.29 22.07Q48.29 20.29 48.96 18.73Q49.63 17.16 50.81 15.99Q51.98 14.82 53.55 14.15Q55.13 13.48 56.91 13.48L59.40 13.48Q61.18 13.48 62.74 14.15Q64.31 14.82 65.48 15.99Q66.65 17.16 67.32 18.73Q67.99 20.29 67.99 22.07L67.99 40.87L67.99 40.87M64.84 22.07Q64.84 20.90 64.40 19.89Q63.96 18.87 63.21 18.12Q62.45 17.36 61.44 16.92Q60.42 16.48 59.25 16.48L57.06 16.48Q55.88 16.48 54.87 16.92Q53.86 17.36 53.09 18.12Q52.32 18.87 51.88 19.89Q51.44 20.90 51.44 22.07L51.44 40.87Q51.44 42.04 51.88 43.05Q52.32 44.07 53.09 44.84Q53.86 45.61 54.87 46.04Q55.88 46.48 57.06 46.48L59.25 46.48Q60.42 46.48 61.44 46.04Q62.45 45.61 63.21 44.84Q63.96 44.07 64.40 43.05Q64.84 42.04 64.84 40.87L64.84 22.07ZM94.70 40.87Q94.70 42.65 94.03 44.21Q93.36 45.78 92.19 46.95Q91.02 48.12 89.45 48.79Q87.89 49.46 86.11 49.46L83.62 49.46Q81.84 49.46 80.26 48.79Q78.69 48.12 77.51 46.95Q76.34 45.78 75.67 44.21Q75 42.65 75 40.87L75 22.07Q75 20.29 75.67 18.73Q76.34 17.16 77.51 15.99Q78.69 14.82 80.26 14.15Q81.84 13.48 83.62 13.48L86.11 13.48Q87.89 13.48 89.45 14.15Q91.02 14.82 92.19 15.99Q93.36 17.16 94.03 18.73Q94.70 20.29 94.70 22.07L94.70 23.49L91.55 23.97L91.55 22.07Q91.55 20.90 91.11 19.89Q90.67 18.87 89.92 18.12Q89.16 17.36 88.15 16.92Q87.13 16.48 85.96 16.48L83.76 16.48Q82.59 16.48 81.58 16.92Q80.57 17.36 79.80 18.12Q79.03 18.87 78.59 19.89Q78.15 20.90 78.15 22.07L78.15 40.87Q78.15 42.04 78.59 43.05Q79.03 44.07 79.80 44.84Q80.57 45.61 81.58 46.04Q82.59 46.48 83.76 46.48L85.96 46.48Q87.13 46.48 88.15 46.04Q89.16 45.61 89.92 44.84Q90.67 44.07 91.11 43.05Q91.55 42.04 91.55 40.87L91.55 38.96L94.70 39.48L94.70 40.87L94.70 40.87ZM118.80 48.97L105.62 31.47L118.80 13.96L122.71 13.96L109.25 31.47L122.71 48.97L118.80 48.97M101.71 48.97L101.71 13.96L104.86 13.96L104.86 48.97L101.71 48.97ZM147.41 26.93Q147.41 28.71 146.74 30.27Q146.07 31.84 144.90 33.01Q143.73 34.18 142.15 34.85Q140.58 35.52 138.79 35.52L130.86 35.52L130.86 48.97L127.71 48.97L127.71 13.96L138.79 13.96Q140.58 13.96 142.15 14.64Q143.73 15.31 144.90 16.48Q146.07 17.65 146.74 19.23Q147.41 20.80 147.41 22.58L147.41 26.93L147.41 26.93M144.26 22.58Q144.26 21.41 143.82 20.40Q143.38 19.38 142.61 18.62Q141.85 17.85 140.83 17.41Q139.82 16.97 138.65 16.97L130.86 16.97L130.86 32.52L138.65 32.52Q139.82 32.52 140.83 32.08Q141.85 31.64 142.61 30.88Q143.38 30.13 143.82 29.11Q144.26 28.10 144.26 26.93L144.26 22.58ZM172.61 40.87Q172.61 42.65 171.94 44.21Q171.26 45.78 170.09 46.95Q168.92 48.12 167.36 48.79Q165.80 49.46 164.01 49.46L161.52 49.46Q159.74 49.46 158.17 48.79Q156.59 48.12 155.42 46.95Q154.25 45.78 153.58 44.21Q152.91 42.65 152.91 40.87L152.91 13.96L156.05 13.96L156.05 40.87Q156.05 42.04 156.49 43.05Q156.93 44.07 157.70 44.84Q158.47 45.61 159.48 46.04Q160.50 46.48 161.67 46.48L163.87 46.48Q165.04 46.48 166.05 46.04Q167.07 45.61 167.82 44.84Q168.58 44.07 169.02 43.05Q169.46 42.04 169.46 40.87L169.46 13.96L172.61 13.96L172.61 40.87L172.61 40.87ZM179.61 48.97L179.61 13.96L182.76 13.96L182.76 45.97L196.17 45.97L196.17 48.97L179.61 48.97ZM220.36 40.87Q220.36 42.65 219.64 44.21Q218.92 45.78 217.71 46.95Q216.50 48.12 214.90 48.79Q213.31 49.46 211.52 49.46L209.01 49.46Q207.23 49.46 205.63 48.79Q204.03 48.12 202.82 46.95Q201.61 45.78 200.89 44.21Q200.17 42.65 200.17 40.87L200.17 39.48L203.32 38.96L203.32 40.87Q203.32 42.04 203.80 43.05Q204.27 44.07 205.08 44.84Q205.88 45.61 206.95 46.04Q208.01 46.48 209.18 46.48L211.38 46.48Q212.55 46.48 213.60 46.04Q214.65 45.61 215.45 44.84Q216.26 44.07 216.74 43.05Q217.21 42.04 217.21 40.87L217.21 39.82Q217.21 38.01 216.50 36.82Q215.80 35.62 214.62 34.78Q213.45 33.94 211.98 33.35Q210.50 32.76 208.94 32.18Q207.37 31.59 205.90 30.88Q204.42 30.18 203.25 29.11Q202.08 28.05 201.37 26.51Q200.66 24.98 200.66 22.73L200.66 22.07Q200.66 20.29 201.33 18.73Q202.00 17.16 203.17 15.99Q204.35 14.82 205.92 14.15Q207.50 13.48 209.28 13.48L211.52 13.48Q213.31 13.48 214.87 14.15Q216.43 14.82 217.60 15.99Q218.77 17.16 219.45 18.73Q220.12 20.29 220.12 22.07L220.12 22.97L216.97 23.49L216.97 22.07Q216.97 20.90 216.53 19.89Q216.09 18.87 215.33 18.12Q214.58 17.36 213.56 16.92Q212.55 16.48 211.38 16.48L209.42 16.48Q208.25 16.48 207.24 16.92Q206.23 17.36 205.46 18.12Q204.69 18.87 204.25 19.89Q203.81 20.90 203.81 22.07L203.81 22.73Q203.81 24.41 204.52 25.56Q205.22 26.71 206.40 27.53Q207.57 28.34 209.05 28.94Q210.52 29.54 212.08 30.16Q213.65 30.79 215.12 31.53Q216.60 32.28 217.77 33.36Q218.95 34.45 219.65 36.01Q220.36 37.57 220.36 39.82L220.36 40.87ZM227.12 48.97L227.12 13.96L246.83 13.96L246.83 16.97L230.27 16.97L230.27 29.98L243.68 29.98L243.68 32.98L230.27 32.98L230.27 45.97L246.83 45.97L246.83 48.97L227.12 48.97Z"/></g></g></svg>