<svg xmlns="http://www.w3.org/2000/svg" viewBox="0 8.899999618530273 373.25 35.599998474121094" data-asc="0.878" width="373.25" height="35.599998474121094"><defs/><g fill="#4169e1"><g transform="translate(0, 0)"><path d="M16.00 8.90Q22.60 8.90 26.85 11.57Q31.10 14.25 31.20 19.50L31.20 20.10L20.85 20.10L20.85 19.90Q20.85 18.40 19.75 17.40Q18.65 16.40 16.40 16.40Q14.20 16.40 13.03 17.05Q11.85 17.70 11.85 18.65Q11.85 20.00 13.45 20.65Q15.05 21.30 18.60 22.00Q22.75 22.85 25.43 23.77Q28.10 24.70 30.10 26.80Q32.10 28.90 32.15 32.50Q32.15 38.60 28.03 41.55Q23.90 44.50 17.00 44.50Q8.95 44.50 4.47 41.80Q0 39.10 0 32.25L10.45 32.25Q10.45 34.85 11.80 35.72Q13.15 36.60 16.00 36.60Q18.10 36.60 19.48 36.15Q20.85 35.70 20.85 34.30Q20.85 33.05 19.33 32.42Q17.80 31.80 14.35 31.10Q10.15 30.20 7.40 29.22Q4.65 28.25 2.60 26.00Q0.55 23.75 0.55 19.90Q0.55 14.25 4.93 11.57Q9.30 8.90 16.00 8.90ZM57.45 18.30L57.45 43.90L46.40 43.90L46.40 18.30L35.10 18.30L35.10 9.50L68.70 9.50L68.70 18.30L57.45 18.30ZM90.85 8.90Q99.75 8.90 104.60 13.45Q109.45 18.00 109.45 26.70Q109.45 35.40 104.60 39.95Q99.75 44.50 90.85 44.50Q81.95 44.50 77.13 39.98Q72.30 35.45 72.30 26.70Q72.30 17.95 77.13 13.42Q81.95 8.90 90.85 8.90M90.85 17.15Q87.30 17.15 85.45 19.30Q83.60 21.45 83.60 25.10L83.60 28.30Q83.60 31.95 85.45 34.10Q87.30 36.25 90.85 36.25Q94.40 36.25 96.28 34.10Q98.15 31.95 98.15 28.30L98.15 25.10Q98.15 21.45 96.28 19.30Q94.40 17.15 90.85 17.15ZM131.80 8.90Q139.45 8.90 143.90 12.72Q148.35 16.55 148.35 23.65L137.80 23.65Q137.80 20.65 136.23 18.90Q134.65 17.15 131.75 17.15Q128.40 17.15 126.83 19.25Q125.25 21.35 125.25 25.10L125.25 28.30Q125.25 32 126.83 34.13Q128.40 36.25 131.65 36.25Q134.85 36.25 136.50 34.60Q138.15 32.95 138.15 29.95L148.35 29.95Q148.35 37 144.03 40.75Q139.70 44.50 131.80 44.50Q123.00 44.50 118.48 40Q113.95 35.50 113.95 26.70Q113.95 17.90 118.48 13.40Q123.00 8.90 131.80 8.90ZM177.60 9.50L191.30 9.50L178.95 23.65L191.55 43.90L178.50 43.90L171.35 31.30L165.35 36.20L165.35 43.90L154.30 43.90L154.30 9.50L165.35 9.50L165.35 24.20L177.60 9.50ZM215.25 9.50Q218.45 9.50 220.95 10.97Q223.45 12.45 224.85 15.02Q226.25 17.60 226.25 20.80L226.25 21.45Q226.25 24.65 224.85 27.25Q223.45 29.85 220.95 31.32Q218.45 32.80 215.25 32.80L207.00 32.80L207.00 43.90L195.95 43.90L195.95 9.50L215.25 9.50M207.00 24.75L211.55 24.75Q213.30 24.75 214.18 23.85Q215.05 22.95 215.05 21.40L215.05 21.00Q215.05 19.40 214.18 18.52Q213.30 17.65 211.55 17.65L207.00 17.65L207.00 24.75ZM266.30 30.05Q266.30 37.10 261.85 40.80Q257.40 44.50 249.20 44.50Q241.00 44.50 236.53 40.80Q232.05 37.10 232.05 30.05L232.05 9.50L243.10 9.50L243.10 29.90Q243.10 32.80 244.65 34.52Q246.20 36.25 249.15 36.25Q252.10 36.25 253.68 34.50Q255.25 32.75 255.25 29.90L255.25 9.50L266.30 9.50L266.30 30.05ZM273.70 9.50L284.75 9.50L284.75 35.10L302.40 35.10L302.40 43.90L273.70 43.90L273.70 9.50ZM321.50 8.90Q328.10 8.90 332.35 11.57Q336.60 14.25 336.70 19.50L336.70 20.10L326.35 20.10L326.35 19.90Q326.35 18.40 325.25 17.40Q324.15 16.40 321.90 16.40Q319.70 16.40 318.53 17.05Q317.35 17.70 317.35 18.65Q317.35 20.00 318.95 20.65Q320.55 21.30 324.10 22.00Q328.25 22.85 330.93 23.77Q333.60 24.70 335.60 26.80Q337.60 28.90 337.65 32.50Q337.65 38.60 333.53 41.55Q329.40 44.50 322.50 44.50Q314.45 44.50 309.98 41.80Q305.50 39.10 305.50 32.25L315.95 32.25Q315.95 34.85 317.30 35.72Q318.65 36.60 321.50 36.60Q323.60 36.60 324.98 36.15Q326.35 35.70 326.35 34.30Q326.35 33.05 324.83 32.42Q323.30 31.80 319.85 31.10Q315.65 30.20 312.90 29.22Q310.15 28.25 308.10 26.00Q306.05 23.75 306.05 19.90Q306.05 14.25 310.43 11.57Q314.80 8.90 321.50 8.90ZM343.15 9.50L372.90 9.50L372.90 17.75L354.20 17.75L354.20 22.50L370.20 22.50L370.20 30.40L354.20 30.40L354.20 35.65L373.25 35.65L373.25 43.90L343.15 43.90L343.15 9.50Z"/></g></g></svg>