<svg xmlns="http://www.w3.org/2000/svg" viewBox="0 1 341.7200012207031 35.0099983215332" data-asc="0.72021484375" width="341.7200012207031" height="35.0099983215332"><defs/><g fill="#4169e1"><g transform="translate(0, 0)"><path d="M5.49 21.02Q4.47 21.02 3.55 20.62Q2.64 20.21 1.95 19.54Q1.27 18.87 0.88 17.96Q0.49 17.04 0.49 16.02L0.49 6.01Q0.49 4.98 0.88 4.06Q1.27 3.15 1.95 2.48Q2.64 1.81 3.55 1.40Q4.47 1.00 5.49 1.00L22.49 1.00Q23.51 1.00 24.43 1.40Q25.34 1.81 26.03 2.48Q26.71 3.15 27.10 4.06Q27.49 4.98 27.49 6.01L27.49 10.52L22.49 10.52L22.49 6.01L5.49 6.01L5.49 16.02L22.49 16.02Q23.51 16.02 24.43 16.41Q25.34 16.80 26.03 17.48Q26.71 18.16 27.10 19.08Q27.49 20.00 27.49 21.02L27.49 31.01Q27.49 32.03 27.10 32.95Q26.71 33.86 26.03 34.55Q25.34 35.23 24.43 35.62Q23.51 36.01 22.49 36.01L5.00 36.01Q3.98 36.01 3.06 35.62Q2.15 35.23 1.46 34.55Q0.78 33.86 0.39 32.95Q0 32.03 0 31.01L0 26.51L5.00 26.51L5.00 31.01L22.49 31.01L22.49 21.02L5.49 21.02ZM33.50 1.00L61.50 1.00L61.50 6.01L50 6.01L50 36.01L45.00 36.01L45.00 6.01L33.50 6.01L33.50 1.00ZM97.51 31.01Q97.51 32.03 97.12 32.95Q96.73 33.86 96.04 34.55Q95.36 35.23 94.45 35.62Q93.53 36.01 92.50 36.01L72.51 36.01Q71.48 36.01 70.57 35.62Q69.65 35.23 68.97 34.55Q68.29 33.86 67.90 32.95Q67.50 32.03 67.50 31.01L67.50 6.01Q67.50 4.98 67.90 4.06Q68.29 3.15 68.97 2.48Q69.65 1.81 70.57 1.40Q71.48 1.00 72.51 1.00L92.50 1.00Q93.53 1.00 94.45 1.40Q95.36 1.81 96.04 2.48Q96.73 3.15 97.12 4.06Q97.51 4.98 97.51 6.01L97.51 31.01M72.51 6.01L72.51 31.01L92.50 31.01L92.50 6.01L72.51 6.01ZM106.49 6.01Q106.49 4.98 106.88 4.06Q107.28 3.15 107.96 2.48Q108.64 1.81 109.56 1.40Q110.47 1.00 111.50 1.00L130.49 1.00Q131.52 1.00 132.43 1.40Q133.35 1.81 134.03 2.48Q134.72 3.15 135.11 4.06Q135.50 4.98 135.50 6.01L135.50 10.52L130.49 10.52L130.49 6.01L111.50 6.01L111.50 31.01L130.49 31.01L130.49 26.51L135.50 26.51L135.50 31.01Q135.50 32.03 135.11 32.95Q134.72 33.86 134.03 34.55Q133.35 35.23 132.43 35.62Q131.52 36.01 130.49 36.01L111.50 36.01Q110.47 36.01 109.56 35.62Q108.64 35.23 107.96 34.55Q107.28 33.86 106.88 32.95Q106.49 32.03 106.49 31.01L106.49 6.01ZM148.51 1.00L148.51 16.11L165.21 1.00L172.27 1.00L153.32 18.16L173.02 36.01L165.97 36.01L148.51 20.26L148.51 36.01L143.51 36.01L143.51 1.00L148.51 1.00ZM177.56 36.01L177.56 1.00L196.73 1.00Q205.22 1.00 205.22 9.52L205.22 14.50Q205.22 23.02 196.73 23.02L182.57 23.02L182.57 36.01L177.56 36.01M182.57 18.02L196.46 18.02Q198.46 18.02 199.34 17.14Q200.22 16.26 200.22 14.26L200.22 9.77Q200.22 7.76 199.34 6.88Q198.46 6.01 196.46 6.01L182.57 6.01L182.57 18.02ZM212.21 1.00L217.21 1.00L217.21 31.01L237.21 31.01L237.21 1.00L242.21 1.00L242.21 31.01Q242.21 32.03 241.82 32.95Q241.43 33.86 240.75 34.55Q240.06 35.23 239.15 35.62Q238.23 36.01 237.21 36.01L217.21 36.01Q216.19 36.01 215.27 35.62Q214.36 35.23 213.67 34.55Q212.99 33.86 212.60 32.95Q212.21 32.03 212.21 31.01L212.21 1.00ZM256.20 1.00L256.20 31.01L274.19 31.01L274.19 36.01L251.20 36.01L251.20 1.00L256.20 1.00ZM285.21 21.02Q284.18 21.02 283.26 20.62Q282.35 20.21 281.67 19.54Q280.98 18.87 280.59 17.96Q280.20 17.04 280.20 16.02L280.20 6.01Q280.20 4.98 280.59 4.06Q280.98 3.15 281.67 2.48Q282.35 1.81 283.26 1.40Q284.18 1.00 285.21 1.00L302.20 1.00Q303.22 1.00 304.14 1.40Q305.05 1.81 305.74 2.48Q306.42 3.15 306.81 4.06Q307.20 4.98 307.20 6.01L307.20 10.52L302.20 10.52L302.20 6.01L285.21 6.01L285.21 16.02L302.20 16.02Q303.22 16.02 304.14 16.41Q305.05 16.80 305.74 17.48Q306.42 18.16 306.81 19.08Q307.20 20.00 307.20 21.02L307.20 31.01Q307.20 32.03 306.81 32.95Q306.42 33.86 305.74 34.55Q305.05 35.23 304.14 35.62Q303.22 36.01 302.20 36.01L284.72 36.01Q283.69 36.01 282.78 35.62Q281.86 35.23 281.18 34.55Q280.49 33.86 280.10 32.95Q279.71 32.03 279.71 31.01L279.71 26.51L284.72 26.51L284.72 31.01L302.20 31.01L302.20 21.02L285.21 21.02ZM316.21 1.00L341.72 1.00L341.72 6.01L321.22 6.01L321.22 16.02L338.72 16.02L338.72 21.02L321.22 21.02L321.22 31.01L341.72 31.01L341.72 36.01L316.21 36.01L316.21 1.00Z"/></g></g></svg>